# xmcd
#
# Track frame offsets:
#	150
#	15095
#	29396
#	42409
#	54026
#	65197
#	77892
#	91024
#	102241
#	115242
#	125885
#	135010
#	151946
#	165449
#	181066
#
# Disc length: 2530 seconds
#
# Revision: 1
# Processed by: cddbd v1.5.2PL0 Copyright (c) Steve Scherf et al.
# Submitted via: EasyCDDAExtractor 16.0.1.1
#
DISCID=ad09e00f
DTITLE=Buzz Cason - Hats Off To Hank
DYEAR=2008
DGENRE=Americana
TTITLE0=Hey Now
TTITLE1=Aint Nobody
TTITLE2=You Baby
TTITLE3=Get Out Of Town
TTITLE4=Hooked Up With The Man
TTITLE5=Somebody Told Me
TTITLE6=Wondering
TTITLE7=Bar Be Que
TTITLE8=Texas Wildflower
TTITLE9=Oddly Enough
TTITLE10=I Love The South
TTITLE11=Black Man In Mississippi
TTITLE12=Can't Go Anywhere
TTITLE13=Playin' Music
TTITLE14=	 - Hats Off To Hank
EXTD=YEAR: 2008
EXTT0=
EXTT1=
EXTT2=
EXTT3=
EXTT4=
EXTT5=
EXTT6=
EXTT7=
EXTT8=
EXTT9=
EXTT10=
EXTT11=
EXTT12=
EXTT13=
EXTT14=
PLAYORDER=
